<?xml version="1.0" encoding="UTF-8" standalone="no"?>
<!DOCTYPE svg PUBLIC "-//W3C//DTD SVG 1.1//EN"
 "http://www.w3.org/Graphics/SVG/1.1/DTD/svg11.dtd">
<!-- Generated by graphviz version 2.26.3 (20100126.1600)
 -->
<!-- Title: G Pages: 1 -->
<svg width="169pt" height="174pt"
 viewBox="0.00 0.00 169.00 174.00" xmlns="http://www.w3.org/2000/svg" xmlns:xlink="http://www.w3.org/1999/xlink">
<g id="graph1" class="graph" transform="scale(1 1) rotate(0) translate(4 170)">
<title>G</title>
<polygon fill="white" stroke="white" points="-4,5 -4,-170 166,-170 166,5 -4,5"/>
<g id="graph2" class="cluster"><title>cluster_Global</title>
<polyline fill="none" stroke="gray" points="20,-8 141,-8 "/>
<path fill="none" stroke="gray" d="M141,-8C147,-8 153,-14 153,-20"/>
<polyline fill="none" stroke="gray" points="153,-20 153,-146 "/>
<path fill="none" stroke="gray" d="M153,-146C153,-152 147,-158 141,-158"/>
<polyline fill="none" stroke="gray" points="141,-158 20,-158 "/>
<path fill="none" stroke="gray" d="M20,-158C14,-158 8,-152 8,-146"/>
<polyline fill="none" stroke="gray" points="8,-146 8,-20 "/>
<path fill="none" stroke="gray" d="M8,-20C8,-14 14,-8 20,-8"/>
<text text-anchor="middle" x="80.5" y="-144.1" font-family="Times Roman,serif" font-size="11.00" fill="gray">\</text>
</g>
<g id="graph3" class="cluster"><title>cluster_\DominionEnterprises</title>
<polyline fill="none" stroke="gray" points="28,-16 133,-16 "/>
<path fill="none" stroke="gray" d="M133,-16C139,-16 145,-22 145,-28"/>
<polyline fill="none" stroke="gray" points="145,-28 145,-116 "/>
<path fill="none" stroke="gray" d="M145,-116C145,-122 139,-128 133,-128"/>
<polyline fill="none" stroke="gray" points="133,-128 28,-128 "/>
<path fill="none" stroke="gray" d="M28,-128C22,-128 16,-122 16,-116"/>
<polyline fill="none" stroke="gray" points="16,-116 16,-28 "/>
<path fill="none" stroke="gray" d="M16,-28C16,-22 22,-16 28,-16"/>
<text text-anchor="middle" x="80.5" y="-114.1" font-family="Times Roman,serif" font-size="11.00" fill="gray">DominionEnterprises</text>
</g>
<g id="graph4" class="cluster"><title>cluster_\DominionEnterprises\Util</title>
<polyline fill="none" stroke="gray" points="58,-24 104,-24 "/>
<path fill="none" stroke="gray" d="M104,-24C110,-24 116,-30 116,-36"/>
<polyline fill="none" stroke="gray" points="116,-36 116,-86 "/>
<path fill="none" stroke="gray" d="M116,-86C116,-92 110,-98 104,-98"/>
<polyline fill="none" stroke="gray" points="104,-98 58,-98 "/>
<path fill="none" stroke="gray" d="M58,-98C52,-98 46,-92 46,-86"/>
<polyline fill="none" stroke="gray" points="46,-86 46,-36 "/>
<path fill="none" stroke="gray" d="M46,-36C46,-30 52,-24 58,-24"/>
<text text-anchor="middle" x="81" y="-84.1" font-family="Times Roman,serif" font-size="11.00" fill="gray">Util</text>
</g>
<!-- \\DominionEnterprises\\Util\\Image -->
<g id="node4" class="node"><title>\\DominionEnterprises\\Util\\Image</title>
<polygon fill="none" stroke="black" points="108,-68 54,-68 54,-32 108,-32 108,-68"/>
<text text-anchor="middle" x="81" y="-47.1" font-family="Times Roman,serif" font-size="11.00">Image</text>
</g>
</g>
</svg>
